<svg width="125" height="29" viewBox="0 0 125 29" fill="none" xmlns="http://www.w3.org/2000/svg">
<path d="M119.985 22.6494C120.323 22.1247 120.518 21.5492 120.568 20.9229C120.619 20.2967 120.645 19.6789 120.645 19.0695C120.154 19.6958 119.553 20.1359 118.842 20.3898C118.131 20.6437 117.361 20.7706 116.532 20.7706C115.567 20.7706 114.729 20.6267 114.018 20.339C113.324 20.0512 112.774 19.6112 112.368 19.0188C111.962 18.4771 111.682 17.8424 111.53 17.1146C111.378 16.3698 111.302 15.5659 111.302 14.7026V7.1875H114.881V14.271C114.881 14.728 114.915 15.1766 114.983 15.6166C115.068 16.0398 115.237 16.3952 115.491 16.683C115.897 17.2923 116.633 17.597 117.7 17.597C118.207 17.597 118.681 17.4954 119.121 17.2923C119.561 17.0723 119.908 16.7338 120.162 16.2768C120.382 15.8875 120.518 15.4812 120.568 15.0581C120.619 14.618 120.645 14.1441 120.645 13.6363V7.1875H124.25V18.1809C124.25 18.7903 124.241 19.4165 124.225 20.0597C124.225 20.686 124.174 21.3038 124.072 21.9131C123.988 22.5224 123.827 23.1149 123.59 23.6903C123.353 24.2658 123.023 24.799 122.6 25.2898C122.007 25.9669 121.229 26.5085 120.264 26.9147C119.316 27.321 118.173 27.5156 116.836 27.4987C115.855 27.5156 114.881 27.3802 113.917 27.0925C112.952 26.8216 112.063 26.4239 111.251 25.8992L112.393 22.8525C112.833 23.1741 113.417 23.4703 114.145 23.7411C114.89 24.0119 115.762 24.1473 116.76 24.1473C117.573 24.1473 118.233 24.0119 118.74 23.7411C119.265 23.4872 119.68 23.1233 119.985 22.6494Z" fill="#AAAAAA"/>
<path d="M103.472 17.597C104.149 17.597 104.682 17.4362 105.071 17.1146C105.478 16.793 105.723 16.4291 105.808 16.0228H109.565C109.447 16.8861 109.201 17.6139 108.829 18.2063C108.457 18.7987 107.991 19.2896 107.433 19.6789C106.891 20.0682 106.273 20.3474 105.579 20.5167C104.885 20.686 104.166 20.7706 103.421 20.7706C102.304 20.7706 101.331 20.6183 100.501 20.3136C99.6889 19.992 99.0119 19.535 98.4702 18.9426C97.9286 18.3332 97.5139 17.6054 97.2262 16.7591C96.9554 15.8959 96.8199 14.9311 96.8199 13.8648C96.8199 12.8323 96.9723 11.8844 97.2769 11.0212C97.5816 10.158 98.0132 9.42171 98.5718 8.81238C99.1473 8.20304 99.8497 7.73758 100.679 7.41598C101.508 7.07746 102.456 6.9082 103.523 6.9082C104.301 6.9082 105.029 7.0013 105.706 7.18748C106.4 7.37367 107.009 7.66141 107.534 8.05071C108.076 8.44001 108.516 8.93932 108.854 9.54866C109.21 10.1411 109.447 10.852 109.565 11.6813H105.808C105.723 11.2751 105.469 10.9112 105.046 10.5896C104.64 10.268 104.107 10.1072 103.446 10.1072C102.888 10.1072 102.406 10.2088 101.999 10.4119C101.593 10.615 101.271 10.8943 101.035 11.2497C100.798 11.6052 100.628 12.0114 100.527 12.4684C100.425 12.9254 100.374 13.4078 100.374 13.9156C100.374 14.4572 100.434 14.9565 100.552 15.4135C100.671 15.8536 100.848 16.2429 101.085 16.5814C101.322 16.903 101.635 17.1569 102.025 17.3431C102.431 17.5123 102.913 17.597 103.472 17.597Z" fill="#AAAAAA"/>
<path d="M85.9204 8.88866C87.0037 7.58536 88.3408 6.92525 89.9319 6.90832C90.7951 6.89139 91.5568 7.03526 92.2169 7.33993C92.877 7.62767 93.4102 8.02543 93.8164 8.53321C94.3072 9.12562 94.6458 9.81959 94.832 10.6151C95.0181 11.3937 95.1112 12.2654 95.1112 13.2302V20.5676H91.506V13.5095C91.506 13.0355 91.4552 12.587 91.3537 12.1638C91.269 11.7238 91.1167 11.3514 90.8967 11.0467C90.6766 10.7251 90.3804 10.4882 90.008 10.3358C89.6526 10.1835 89.2464 10.1073 88.7894 10.1073C88.2139 10.1243 87.723 10.2512 87.3168 10.4882C86.9275 10.7251 86.6313 11.0298 86.4282 11.4022C86.2251 11.7576 86.0812 12.1638 85.9966 12.6208C85.9289 13.0609 85.895 13.5095 85.895 13.9665V20.5676H82.3152V7.1876H85.7427L85.9204 8.88866Z" fill="#AAAAAA"/>
<path d="M74.2631 17.8509C74.7709 17.8509 75.2025 17.7747 75.558 17.6224C75.9303 17.4531 76.235 17.1823 76.472 16.8099H80.2295C80.0433 17.5039 79.7556 18.1047 79.3663 18.6125C78.9939 19.1203 78.5369 19.535 77.9953 19.8566C77.4706 20.1782 76.8866 20.4151 76.2435 20.5675C75.6003 20.7029 74.9232 20.7706 74.2123 20.7706C72.0458 20.7706 70.404 20.1612 69.2869 18.9426C68.1867 17.7239 67.6366 16.0144 67.6366 13.814C67.6366 12.8154 67.7805 11.8929 68.0682 11.0466C68.3729 10.2003 68.796 9.47249 69.3377 8.86316C69.8793 8.23689 70.5479 7.7545 71.3434 7.41598C72.1558 7.07746 73.0783 6.9082 74.1108 6.9082C75.3125 6.9082 76.3535 7.11978 77.2336 7.54293C78.1138 7.96608 78.8077 8.55002 79.3155 9.29477C79.8402 10.0226 80.1872 10.8773 80.3565 11.8591C80.5427 12.8408 80.5427 13.8902 80.3565 15.0073H71.2164C71.2841 15.8028 71.5634 16.4798 72.0543 17.0384C72.5451 17.58 73.2814 17.8509 74.2631 17.8509ZM77.0305 12.5446C77.0305 12.1214 76.9544 11.749 76.802 11.4274C76.6497 11.0889 76.4466 10.8181 76.1927 10.615C75.9388 10.395 75.6341 10.2342 75.2787 10.1326C74.9402 10.031 74.5847 9.98027 74.2123 9.98027C73.3153 9.9972 72.6128 10.2426 72.1051 10.7166C71.6142 11.1736 71.3265 11.7829 71.2418 12.5446H77.0305Z" fill="#AAAAAA"/>
<path d="M62.2376 19.1966C61.7298 19.7721 61.1205 20.1783 60.4096 20.4153C59.6987 20.6522 58.9286 20.7707 58.0992 20.7707C57.2698 20.7707 56.4574 20.6438 55.6619 20.3899C54.8833 20.1191 54.2062 19.6874 53.6307 19.095C52.9876 18.418 52.539 17.6394 52.2851 16.7592C52.0312 15.8791 51.9043 14.9736 51.9043 14.0426C51.9043 11.8422 52.5136 10.0819 53.7323 8.76172C54.257 8.18623 54.934 7.73769 55.7634 7.4161C56.6097 7.09451 57.5153 6.94217 58.48 6.9591C59.1063 6.92525 59.7833 7.03527 60.5112 7.28916C61.239 7.54305 61.8652 7.96619 62.3899 8.5586L62.7708 7.1876H65.8682V19.7298C65.8682 20.2714 65.8344 20.8046 65.7667 21.3293C65.7159 21.8709 65.6228 22.3871 65.4874 22.878C65.352 23.3858 65.1489 23.8682 64.8781 24.3252C64.5734 24.8837 64.201 25.3576 63.7609 25.7469C63.3378 26.1362 62.8639 26.4578 62.3392 26.7117C61.8145 26.9825 61.2559 27.1772 60.6635 27.2957C60.0711 27.4142 59.4702 27.4734 58.8609 27.4734C58.0823 27.4734 57.3375 27.3803 56.6266 27.1941C55.9158 27.0249 55.2641 26.7371 54.6717 26.3309C54.0962 25.9416 53.6138 25.4423 53.2245 24.8329C52.8522 24.2236 52.6067 23.4958 52.4882 22.6495H56.2966C56.3643 23.0557 56.6351 23.4196 57.109 23.7412C57.583 24.0628 58.1584 24.2236 58.8355 24.2236C59.5633 24.2236 60.1557 24.0797 60.6127 23.792C61.0866 23.5042 61.4421 23.1234 61.6791 22.6495C61.916 22.1756 62.0683 21.6339 62.1361 21.0246C62.2038 20.4153 62.2376 19.8059 62.2376 19.1966ZM58.9117 17.5971C59.4702 17.5971 59.9611 17.4955 60.3842 17.2924C60.8243 17.0893 61.1797 16.8185 61.4506 16.48C61.7214 16.1245 61.9245 15.7183 62.0599 15.2613C62.1953 14.7874 62.263 14.288 62.263 13.7633C62.263 12.7139 61.9668 11.8507 61.3744 11.1737C60.7989 10.4797 59.9695 10.1243 58.8863 10.1073C58.3277 10.1073 57.8284 10.2089 57.3883 10.412C56.9652 10.6151 56.6097 10.8859 56.322 11.2244C56.0512 11.563 55.8481 11.9607 55.7126 12.4177C55.5772 12.8747 55.5095 13.3656 55.5095 13.8903C55.5095 14.4488 55.5772 14.9566 55.7126 15.4136C55.865 15.8537 56.085 16.243 56.3728 16.5815C56.6605 16.9031 57.0159 17.157 57.4391 17.3432C57.8622 17.5124 58.3531 17.5971 58.9117 17.5971Z" fill="#AAAAAA"/>
<path d="M46.795 18.9172C46.2872 19.5942 45.6694 20.0766 44.9416 20.3644C44.2137 20.6521 43.3674 20.7875 42.4027 20.7706C41.1671 20.7367 40.1346 20.3898 39.3052 19.7296C38.8651 19.3573 38.5181 18.9172 38.2643 18.4094C38.0273 17.8847 37.9088 17.2669 37.9088 16.556C37.9257 15.8282 38.0865 15.185 38.3912 14.6265C38.7128 14.051 39.1952 13.577 39.8384 13.2047C40.38 12.9169 40.9893 12.7138 41.6664 12.5953C42.3603 12.4769 43.1136 12.4176 43.926 12.4176H46.668C46.7188 11.5882 46.5241 10.9704 46.0841 10.5642C45.6609 10.1411 45.06 9.92103 44.2814 9.9041C44.0276 9.9041 43.7652 9.92103 43.4944 9.95488C43.2236 9.98873 42.9697 10.0564 42.7327 10.158C42.5127 10.2595 42.318 10.4034 42.1488 10.5896C41.9964 10.7589 41.8949 10.9704 41.8441 11.2243H38.1627C38.2473 10.4119 38.4674 9.73484 38.8228 9.19321C39.1952 8.63465 39.6607 8.18612 40.2192 7.8476C40.7778 7.50908 41.3956 7.27211 42.0726 7.1367C42.7666 6.98437 43.4775 6.9082 44.2053 6.9082C44.6115 6.9082 45.0262 6.93359 45.4493 6.98437C45.8725 7.01822 46.2872 7.10285 46.6934 7.23826C47.0996 7.35674 47.4805 7.526 47.8359 7.74604C48.2083 7.94915 48.5553 8.21997 48.8769 8.55849C49.4523 9.2186 49.8078 9.98027 49.9432 10.8435C50.0955 11.6898 50.1632 12.5192 50.1463 13.3316V20.5675H46.8711L46.795 18.9172ZM46.668 14.6518H44.0529C43.7991 14.6518 43.5113 14.6772 43.1897 14.728C42.8681 14.7788 42.5888 14.8719 42.3519 15.0073C42.1149 15.1427 41.9118 15.3204 41.7425 15.5405C41.5902 15.7605 41.514 16.0313 41.514 16.3529C41.514 16.6237 41.5648 16.8607 41.6664 17.0638C41.7849 17.2669 41.9287 17.4362 42.098 17.5716C42.2842 17.707 42.5042 17.817 42.7581 17.9016C43.012 17.9693 43.2659 18.0032 43.5198 18.0032C44.0106 18.0201 44.4676 17.9355 44.8908 17.7493C45.3309 17.5631 45.7117 17.3008 46.0333 16.9622C46.2364 16.6914 46.3887 16.3868 46.4903 16.0482C46.6088 15.6928 46.668 15.2273 46.668 14.6518Z" fill="#AAAAAA"/>
<path fill-rule="evenodd" clip-rule="evenodd" d="M28.1869 14.9111C28.0435 17.4176 27.2331 19.8458 25.8329 21.9415C24.283 24.261 22.0801 26.0689 19.5027 27.1364C16.9254 28.204 14.0893 28.4833 11.3532 27.9391C8.61715 27.3949 6.10388 26.0515 4.13126 24.0789C2.15864 22.1063 0.815274 19.593 0.27103 16.8569C-0.273214 14.1208 0.00611147 11.2847 1.07368 8.70739C2.14126 6.13004 3.94913 3.92715 6.26868 2.37727C8.36428 0.977036 10.7925 0.16663 13.299 0.0231934V7.09885C12.1894 7.22649 11.1219 7.61641 10.1868 8.24121C9.02706 9.01614 8.12312 10.1176 7.58934 11.4063C7.05555 12.6949 6.91589 14.113 7.18801 15.481C7.46013 16.8491 8.13182 18.1057 9.11813 19.092C10.1044 20.0783 11.3611 20.75 12.7291 21.0221C14.0972 21.2942 15.5152 21.1546 16.8039 20.6208C18.0925 20.087 19.194 19.1831 19.9689 18.0233C20.5937 17.0882 20.9836 16.0207 21.1113 14.9111H28.1869Z" fill="#AAAAAA"/>
<path fill-rule="evenodd" clip-rule="evenodd" d="M21.1537 0H15.3839V7.05248H21.1537V12.8224H28.2062L28.2062 7.05248H28.2067V0H26.9161H21.1537Z" fill="#AAAAAA"/>
</svg>
