<svg width="149" height="32" viewBox="0 0 149 32" fill="none" xmlns="http://www.w3.org/2000/svg">
<path d="M146.907 15.5597L143.391 15.7761C143.33 15.4756 143.201 15.2051 143.003 14.9647C142.804 14.7182 142.543 14.5229 142.218 14.3786C141.9 14.2284 141.518 14.1532 141.073 14.1532C140.478 14.1532 139.976 14.2795 139.568 14.5319C139.159 14.7783 138.955 15.1089 138.955 15.5237C138.955 15.8543 139.087 16.1338 139.351 16.3622C139.616 16.5906 140.07 16.7739 140.713 16.9121L143.219 17.417C144.566 17.6935 145.569 18.1383 146.231 18.7514C146.892 19.3645 147.222 20.1699 147.222 21.1677C147.222 22.0753 146.955 22.8717 146.42 23.5569C145.891 24.2421 145.164 24.7771 144.238 25.1617C143.318 25.5404 142.258 25.7297 141.055 25.7297C139.222 25.7297 137.762 25.3481 136.674 24.5847C135.592 23.8154 134.958 22.7695 134.771 21.4472L138.549 21.2488C138.663 21.8078 138.94 22.2346 139.378 22.5291C139.817 22.8176 140.379 22.9618 141.064 22.9618C141.738 22.9618 142.279 22.8326 142.687 22.5742C143.102 22.3097 143.312 21.9701 143.318 21.5554C143.312 21.2067 143.165 20.9212 142.877 20.6988C142.588 20.4704 142.143 20.2961 141.542 20.1759L139.144 19.6981C137.792 19.4276 136.785 18.9588 136.124 18.2916C135.468 17.6244 135.141 16.7739 135.141 15.7401C135.141 14.8505 135.381 14.0841 135.862 13.441C136.349 12.7978 137.031 12.302 137.909 11.9533C138.792 11.6047 139.826 11.4304 141.01 11.4304C142.759 11.4304 144.136 11.8001 145.14 12.5394C146.149 13.2787 146.738 14.2855 146.907 15.5597Z" fill="#AAAAAA"/>
<path d="M132.65 15.5597L129.134 15.7761C129.074 15.4756 128.945 15.2051 128.746 14.9647C128.548 14.7182 128.287 14.5229 127.962 14.3786C127.643 14.2284 127.262 14.1532 126.817 14.1532C126.222 14.1532 125.72 14.2795 125.311 14.5319C124.903 14.7783 124.698 15.1089 124.698 15.5237C124.698 15.8543 124.83 16.1338 125.095 16.3622C125.359 16.5906 125.813 16.7739 126.456 16.9121L128.963 17.417C130.309 17.6935 131.313 18.1383 131.974 18.7514C132.635 19.3645 132.966 20.1699 132.966 21.1677C132.966 22.0753 132.698 22.8717 132.163 23.5569C131.634 24.2421 130.907 24.7771 129.982 25.1617C129.062 25.5404 128.001 25.7297 126.799 25.7297C124.966 25.7297 123.505 25.3481 122.417 24.5847C121.335 23.8154 120.701 22.7695 120.515 21.4472L124.292 21.2488C124.407 21.8078 124.683 22.2346 125.122 22.5291C125.561 22.8176 126.123 22.9618 126.808 22.9618C127.481 22.9618 128.022 22.8326 128.431 22.5742C128.846 22.3097 129.056 21.9701 129.062 21.5554C129.056 21.2067 128.909 20.9212 128.62 20.6988C128.332 20.4704 127.887 20.2961 127.286 20.1759L124.888 19.6981C123.535 19.4276 122.528 18.9588 121.867 18.2916C121.212 17.6244 120.884 16.7739 120.884 15.7401C120.884 14.8505 121.125 14.0841 121.606 13.441C122.093 12.7978 122.775 12.302 123.652 11.9533C124.536 11.6047 125.57 11.4304 126.754 11.4304C128.503 11.4304 129.879 11.8001 130.883 12.5394C131.893 13.2787 132.482 14.2855 132.65 15.5597Z" fill="#AAAAAA"/>
<path d="M112.265 25.7297C110.841 25.7297 109.614 25.4412 108.587 24.8642C107.565 24.2812 106.777 23.4577 106.224 22.3938C105.671 21.3239 105.395 20.0587 105.395 18.5981C105.395 17.1736 105.671 15.9234 106.224 14.8475C106.777 13.7716 107.556 12.9331 108.56 12.332C109.569 11.731 110.753 11.4304 112.112 11.4304C113.025 11.4304 113.876 11.5777 114.663 11.8722C115.457 12.1607 116.148 12.5965 116.737 13.1795C117.332 13.7626 117.795 14.4958 118.125 15.3794C118.456 16.257 118.621 17.2848 118.621 18.4629V19.5177H106.928V17.1375H115.006C115.006 16.5845 114.886 16.0947 114.645 15.6679C114.405 15.2412 114.071 14.9076 113.645 14.6672C113.224 14.4207 112.734 14.2975 112.175 14.2975C111.592 14.2975 111.075 14.4327 110.624 14.7032C110.179 14.9677 109.831 15.3253 109.578 15.7761C109.326 16.2209 109.197 16.7168 109.191 17.2638V19.5268C109.191 20.212 109.317 20.804 109.569 21.3029C109.828 21.8018 110.191 22.1865 110.66 22.457C111.129 22.7274 111.685 22.8627 112.328 22.8627C112.755 22.8627 113.146 22.8026 113.5 22.6824C113.855 22.5621 114.158 22.3818 114.411 22.1414C114.663 21.901 114.856 21.6064 114.988 21.2578L118.54 21.4922C118.36 22.3458 117.99 23.0911 117.431 23.7282C116.878 24.3593 116.163 24.8522 115.285 25.2068C114.414 25.5554 113.407 25.7297 112.265 25.7297Z" fill="#AAAAAA"/>
<path d="M94.001 17.4531V25.4593H90.1602V11.6107H93.8206V14.0541H93.9829C94.2895 13.2486 94.8034 12.6115 95.5247 12.1427C96.2459 11.6678 97.1205 11.4304 98.1483 11.4304C99.11 11.4304 99.9485 11.6408 100.664 12.0615C101.379 12.4823 101.935 13.0833 102.332 13.8647C102.728 14.6401 102.927 15.5657 102.927 16.6417V25.4593H99.086V17.3269C99.092 16.4794 98.8756 15.8182 98.4368 15.3434C97.998 14.8625 97.394 14.6221 96.6246 14.6221C96.1077 14.6221 95.6509 14.7333 95.2542 14.9557C94.8635 15.1781 94.5569 15.5026 94.3346 15.9294C94.1182 16.3501 94.007 16.858 94.001 17.4531Z" fill="#AAAAAA"/>
<path d="M83.2426 25.4593V11.6107H87.0834V25.4593H83.2426ZM85.1721 9.82558C84.601 9.82558 84.1112 9.63625 83.7025 9.25757C83.2997 8.87289 83.0984 8.41308 83.0984 7.87813C83.0984 7.34919 83.2997 6.89539 83.7025 6.51672C84.1112 6.13204 84.601 5.9397 85.1721 5.9397C85.7431 5.9397 86.2299 6.13204 86.6326 6.51672C87.0414 6.89539 87.2457 7.34919 87.2457 7.87813C87.2457 8.41308 87.0414 8.87289 86.6326 9.25757C86.2299 9.63625 85.7431 9.82558 85.1721 9.82558Z" fill="#AAAAAA"/>
<path d="M80.5087 15.5597L76.9924 15.7761C76.9323 15.4756 76.8031 15.2051 76.6048 14.9647C76.4064 14.7182 76.1449 14.5229 75.8204 14.3786C75.5018 14.2284 75.1201 14.1532 74.6753 14.1532C74.0803 14.1532 73.5784 14.2795 73.1697 14.5319C72.7609 14.7783 72.5566 15.1089 72.5566 15.5237C72.5566 15.8543 72.6888 16.1338 72.9533 16.3622C73.2177 16.5906 73.6716 16.7739 74.3147 16.9121L76.8211 17.417C78.1675 17.6935 79.1713 18.1383 79.8325 18.7514C80.4936 19.3645 80.8242 20.1699 80.8242 21.1677C80.8242 22.0753 80.5568 22.8717 80.0218 23.5569C79.4929 24.2421 78.7656 24.7771 77.8399 25.1617C76.9203 25.5404 75.8594 25.7297 74.6573 25.7297C72.8241 25.7297 71.3635 25.3481 70.2755 24.5847C69.1936 23.8154 68.5595 22.7695 68.3732 21.4472L72.1509 21.2488C72.2651 21.8078 72.5416 22.2346 72.9803 22.5291C73.4191 22.8176 73.9811 22.9618 74.6663 22.9618C75.3395 22.9618 75.8805 22.8326 76.2892 22.5742C76.7039 22.3097 76.9143 21.9701 76.9203 21.5554C76.9143 21.2067 76.767 20.9212 76.4785 20.6988C76.19 20.4704 75.7452 20.2961 75.1442 20.1759L72.7459 19.6981C71.3935 19.4276 70.3867 18.9588 69.7256 18.2916C69.0704 17.6244 68.7428 16.7739 68.7428 15.7401C68.7428 14.8505 68.9832 14.0841 69.4641 13.441C69.951 12.7978 70.6332 12.302 71.5107 11.9533C72.3943 11.6047 73.4281 11.4304 74.6122 11.4304C76.3613 11.4304 77.7378 11.8001 78.7415 12.5394C79.7513 13.2787 80.3404 14.2855 80.5087 15.5597Z" fill="#AAAAAA"/>
<path d="M62.0731 19.5629V11.6108H65.9139V25.4594H62.2264V22.9439H62.0821C61.7696 23.7554 61.2497 24.4075 60.5224 24.9004C59.8011 25.3933 58.9205 25.6397 57.8807 25.6397C56.955 25.6397 56.1406 25.4293 55.4374 25.0086C54.7341 24.5878 54.1841 23.9898 53.7874 23.2144C53.3967 22.439 53.1984 21.5104 53.1924 20.4285V11.6108H57.0332V19.7432C57.0392 20.5607 57.2586 21.2068 57.6914 21.6817C58.1241 22.1565 58.7041 22.3939 59.4314 22.3939C59.8943 22.3939 60.327 22.2888 60.7297 22.0784C61.1324 21.862 61.457 21.5434 61.7035 21.1227C61.9559 20.7019 62.0791 20.182 62.0731 19.5629Z" fill="#AAAAAA"/>
<path d="M37.1238 25.4593V6.99463H40.9646V13.9369H41.0818C41.2501 13.5643 41.4935 13.1856 41.8121 12.8009C42.1367 12.4102 42.5574 12.0856 43.0743 11.8272C43.5972 11.5627 44.2464 11.4305 45.0218 11.4305C46.0316 11.4305 46.9632 11.695 47.8167 12.2239C48.6702 12.7468 49.3524 13.5372 49.8633 14.5951C50.3743 15.647 50.6297 16.9663 50.6297 18.5531C50.6297 20.0978 50.3803 21.4021 49.8814 22.466C49.3885 23.5239 48.7153 24.3263 47.8618 24.8733C47.0143 25.4143 46.0646 25.6847 45.0128 25.6847C44.2674 25.6847 43.6333 25.5615 43.1104 25.3151C42.5935 25.0686 42.1697 24.7591 41.8391 24.3864C41.5085 24.0078 41.2561 23.6261 41.0818 23.2414H40.9105V25.4593H37.1238ZM40.8834 18.5351C40.8834 19.3585 40.9976 20.0768 41.226 20.6899C41.4545 21.303 41.785 21.7808 42.2178 22.1234C42.6506 22.46 43.1765 22.6283 43.7956 22.6283C44.4207 22.6283 44.9496 22.457 45.3824 22.1144C45.8152 21.7658 46.1428 21.2849 46.3652 20.6719C46.5936 20.0528 46.7078 19.3405 46.7078 18.5351C46.7078 17.7357 46.5966 17.0324 46.3742 16.4253C46.1518 15.8183 45.8242 15.3434 45.3914 15.0008C44.9587 14.6582 44.4267 14.4869 43.7956 14.4869C43.1705 14.4869 42.6416 14.6522 42.2088 14.9828C41.782 15.3134 41.4545 15.7822 41.226 16.3893C40.9976 16.9963 40.8834 17.7116 40.8834 18.5351Z" fill="#AAAAAA"/>
<path fill-rule="evenodd" clip-rule="evenodd" d="M15.1916 11.7204L19.3463 15.8751L15.3904 19.831L11.2357 15.6763L15.1916 11.7204ZM10.9318 7.46063L8.32701 4.85579C8.17843 4.70721 8.17843 4.46631 8.32701 4.31773L12.0487 0.596056C12.1973 0.447473 12.4382 0.447473 12.5867 0.596056L25.3099 13.3192C26.7215 14.7308 26.7215 17.0193 25.3099 18.4309L19.6501 24.0907L22.2549 26.6955C22.4035 26.8441 22.4035 27.085 22.2549 27.2336L18.5333 30.9553C18.3847 31.1039 18.1438 31.1039 17.9952 30.9553L5.27204 18.2321C3.86049 16.8206 3.86049 14.532 5.27204 13.1204L10.9318 7.46063Z" fill="#AAAAAA"/>
</svg>
