<svg width="140" height="31" viewBox="0 0 140 31" fill="none" xmlns="http://www.w3.org/2000/svg">
<path d="M131.606 9.06396C135.287 9.06396 137.699 11.6283 137.699 15.0558C137.699 15.6397 137.598 16.1729 137.496 16.6553H128.407C128.61 18.6864 130.311 19.7527 132.215 19.7527C133.713 19.7527 134.83 19.118 135.617 18.3056L137.445 20.489C135.846 22.0123 134.196 22.6217 132.063 22.6217C127.798 22.6217 124.979 19.6512 124.979 15.8682C124.979 12.0853 127.747 9.06396 131.606 9.06396ZM131.58 11.8314C129.956 11.8314 128.686 12.7961 128.407 14.421H134.475V14.3956C134.348 12.7961 133.129 11.8314 131.58 11.8314Z" fill="#AAAAAA"/>
<path d="M115.301 9.36867H117.23V5.8396H120.429V9.36867H123.501V12.0091H120.429V17.7724C120.429 19.0165 121.039 19.6512 122.232 19.6512C122.613 19.6512 123.248 19.6004 123.831 19.2196V22.1139C123.248 22.4186 122.46 22.6217 121.369 22.6217C118.728 22.6217 117.129 21.073 117.129 18.2548V12.0091H115.301V9.36867Z" fill="#AAAAAA"/>
<path d="M100.725 9.36865H104.025V16.833C104.025 18.6864 105.117 19.6766 106.64 19.6766C108.697 19.6766 109.611 17.7978 109.611 16.046V9.36865H112.911V22.317H109.738V20.5398C108.925 21.8854 107.656 22.6217 105.752 22.6217C102.705 22.6217 100.725 20.6414 100.725 17.2138V9.36865Z" fill="#AAAAAA"/>
<path d="M90.1846 9.36867H92.1141V5.8396H95.3131V9.36867H98.3852V12.0091H95.3131V17.7724C95.3131 19.0165 95.9225 19.6512 97.1158 19.6512C97.4966 19.6512 98.1313 19.6004 98.7153 19.2196V22.1139C98.1313 22.4186 97.3443 22.6217 96.2525 22.6217C93.6121 22.6217 92.0126 21.073 92.0126 18.2548V12.0091H90.1846V9.36867Z" fill="#AAAAAA"/>
<path d="M84.4894 22.3169V9.36853H87.7899V22.3169H84.4894ZM86.1143 3.75757C87.1552 3.75757 88.0184 4.51924 88.0184 5.61096C88.0184 6.70269 87.1552 7.48975 86.1143 7.48975C85.0225 7.48975 84.2101 6.70269 84.2101 5.61096C84.2101 4.51924 85.0225 3.75757 86.1143 3.75757Z" fill="#AAAAAA"/>
<path d="M73.6471 9.36867H75.5767V5.8396H78.7757V9.36867H81.8477V12.0091H78.7757V17.7724C78.7757 19.0165 79.385 19.6512 80.5783 19.6512C80.9591 19.6512 81.5938 19.6004 82.1778 19.2196V22.1139C81.5938 22.4186 80.8068 22.6217 79.7151 22.6217C77.0746 22.6217 75.4751 21.073 75.4751 18.2548V12.0091H73.6471V9.36867Z" fill="#AAAAAA"/>
<path d="M67.2057 22.6217C64.8699 22.6217 62.8642 21.53 61.874 19.7019L64.1083 18.0517C64.8191 19.1688 65.8093 19.9558 67.2057 19.9558C68.4244 19.9558 69.1607 19.5242 69.1607 18.8387C69.1607 18.0263 68.4752 17.6962 66.3679 16.9853C63.7274 16.0967 62.3056 15.0558 62.3056 12.9231C62.3056 10.6889 64.4891 9.06396 67.2819 9.06396C69.4145 9.06396 71.1664 10.0795 72.0042 11.6283L69.7954 13.2278C69.2622 12.3391 68.4498 11.7044 67.2311 11.7044C66.1901 11.7044 65.4031 12.1868 65.4031 12.8977C65.4031 13.5832 66.0886 13.9386 68.0943 14.6495C70.5571 15.5382 72.2581 16.4014 72.2581 18.7626C72.2581 20.946 70.2016 22.6217 67.2057 22.6217Z" fill="#AAAAAA"/>
<path d="M47.3232 9.36863H50.4969V11.1459C51.3093 9.80024 52.5788 9.06396 54.4829 9.06396C57.5296 9.06396 59.51 11.0443 59.51 14.4718V22.317H56.2094V14.8527C56.2094 12.9993 55.1177 12.0091 53.5943 12.0091C51.5378 12.0091 50.6238 13.8625 50.6238 15.6397V22.317H47.3232V9.36863Z" fill="#AAAAAA"/>
<path d="M40.2569 22.3169V9.36853H43.5575V22.3169H40.2569ZM41.8818 3.75757C42.9228 3.75757 43.786 4.51924 43.786 5.61096C43.786 6.70269 42.9228 7.48975 41.8818 7.48975C40.7901 7.48975 39.9777 6.70269 39.9777 5.61096C39.9777 4.51924 40.7901 3.75757 41.8818 3.75757Z" fill="#AAAAAA"/>
<path fill-rule="evenodd" clip-rule="evenodd" d="M8.88416 1.40466C4.17199 3.6883 0.922729 8.51719 0.922729 14.105C0.922729 21.895 7.23775 28.21 15.0277 28.21C20.6155 28.21 25.4444 24.9607 27.728 20.2486H15.0406L15.0277 20.2486C11.6557 20.2486 8.91818 17.532 8.88444 14.1679H8.88416V14.1253L8.88412 14.105L8.88416 14.0848V1.40466ZM28.9378 16.4551C29.066 15.6908 29.1327 14.9057 29.1327 14.105C29.1327 6.31502 22.8177 0 15.0277 0C14.227 0 13.4419 0.0667138 12.6777 0.194886V8.42696C13.4016 8.12702 14.1953 7.96148 15.0277 7.96148C18.4207 7.96148 21.1712 10.7121 21.1712 14.105C21.1712 14.9374 21.0057 15.7311 20.7058 16.4551H28.9378Z" fill="#AAAAAA"/>
</svg>
