<svg width="108" height="29" viewBox="0 0 108 29" fill="none" xmlns="http://www.w3.org/2000/svg">
<path d="M95.954 22.3744C94.9385 21.7651 94.126 20.9527 93.5167 19.9371C92.9073 18.9215 92.6281 17.8044 92.6281 16.5857C92.6281 15.3925 92.9073 14.2754 93.5167 13.2598C94.126 12.2442 94.9385 11.4318 95.954 10.8225C96.9696 10.2131 98.0867 9.90845 99.3054 9.90845C100.499 9.90845 101.616 10.2131 102.631 10.8225C103.647 11.4318 104.459 12.2442 105.069 13.2598C105.678 14.2754 105.983 15.3925 105.983 16.5857C105.983 17.8044 105.678 18.9215 105.069 19.9371C104.459 20.9527 103.647 21.7651 102.631 22.3744C101.616 22.9838 100.499 23.2631 99.3054 23.2631C98.0867 23.2631 96.9696 22.9838 95.954 22.3744ZM101.057 19.6578C101.59 19.3531 102.022 18.9215 102.352 18.363C102.657 17.8298 102.834 17.2459 102.834 16.5857C102.834 15.951 102.657 15.3671 102.352 14.8085C102.022 14.2754 101.59 13.8437 101.057 13.5137C100.499 13.209 99.9147 13.0313 99.28 13.0313C98.6198 13.0313 98.0359 13.209 97.5027 13.5137C96.9442 13.8437 96.5126 14.2754 96.2079 14.8085C95.9032 15.3671 95.7509 15.951 95.7509 16.5857C95.7509 17.2459 95.9032 17.8298 96.2079 18.363C96.5126 18.9215 96.9442 19.3531 97.5027 19.6578C98.0359 19.9625 98.6198 20.1148 99.28 20.1148C99.9147 20.1148 100.499 19.9625 101.057 19.6578Z" fill="#AAAAAA"/>
<path d="M87.9947 7.62333C87.6393 7.31866 87.4869 6.86166 87.4869 6.3031C87.4869 5.74455 87.6393 5.28755 87.9947 4.95749C88.3248 4.65282 88.7818 4.4751 89.3911 4.4751C89.9751 4.4751 90.4321 4.65282 90.7875 4.95749C91.1176 5.28755 91.2953 5.74455 91.2953 6.3031C91.2953 6.86166 91.1176 7.29327 90.7621 7.62333C90.4067 7.95339 89.9497 8.10572 89.3911 8.10572C88.7818 8.10572 88.3248 7.95339 87.9947 7.62333ZM87.7916 22.9075V10.213H90.9398V22.9075H87.7916Z" fill="#AAAAAA"/>
<path d="M81.6329 5.13525H84.7811V22.9075H81.6329V21.6889C81.0489 22.1966 80.4142 22.6029 79.7033 22.8568C78.9924 23.136 78.2561 23.263 77.4945 23.263C76.1996 23.263 75.0825 22.9837 74.1177 22.3998C73.1529 21.8412 72.3913 21.0288 71.8835 20.0132C71.3757 18.9976 71.1218 17.8551 71.1218 16.5857C71.1218 15.3162 71.3757 14.1737 71.8835 13.1582C72.3913 12.1426 73.1529 11.3556 74.1177 10.7716C75.0825 10.1877 76.1996 9.88299 77.4945 9.88299C78.2561 9.88299 78.967 10.0353 79.6779 10.3146C80.3888 10.5939 81.0235 10.9747 81.6329 11.4571V5.13525ZM79.7795 19.7847C80.338 19.48 80.795 19.023 81.1251 18.4645C81.4551 17.9059 81.6329 17.2712 81.6329 16.5603C81.6329 15.494 81.252 14.6307 80.5411 13.9452C79.8302 13.2851 78.9416 12.9297 77.9007 12.9297C76.8343 12.9297 75.9457 13.2851 75.2602 13.9706C74.5747 14.6561 74.2447 15.5193 74.2447 16.5857C74.2447 17.652 74.5747 18.5406 75.2602 19.2261C75.9457 19.9116 76.8343 20.2417 77.9007 20.2417C78.5862 20.2417 79.2209 20.0894 79.7795 19.7847Z" fill="#AAAAAA"/>
<path d="M66.0477 10.2131H69.1959V22.9076H66.0477V21.8413C65.5907 22.2729 65.0829 22.603 64.5243 22.8568C63.9658 23.1107 63.3564 23.2377 62.7471 23.2377C61.9854 23.2377 61.2238 23.0853 60.4621 22.7807C59.7004 22.476 59.0403 21.8921 58.4818 21.0796C57.9232 20.2672 57.6693 19.1754 57.6693 17.8044V10.2131H60.8175V17.8044C60.8175 18.7692 61.0714 19.4547 61.6046 19.8609C62.1378 20.2672 62.7725 20.4703 63.4834 20.4703C64.1943 20.4703 64.7782 20.2418 65.286 19.734C65.7938 19.2262 66.0477 18.4392 66.0477 17.322V10.2131Z" fill="#AAAAAA"/>
<path d="M53.4577 19.7594C53.7116 19.9879 54.1432 20.0894 54.7526 20.0894C55.108 20.0894 55.4889 20.064 55.9205 20.0133V22.9076C55.108 23.0092 54.4479 23.0345 53.9401 23.0345C52.5691 23.0345 51.5536 22.7299 50.8935 22.1205C50.2333 21.5112 49.9033 20.3941 49.9033 18.7692V13.0313H47.5167V10.2131H49.9033V7.09026L53.0515 6.02393V10.2131H55.8697V13.0313H53.0515V18.5661C53.0515 19.15 53.1785 19.5562 53.4577 19.7594Z" fill="#AAAAAA"/>
<path d="M40.1645 14.58C40.5707 14.7577 41.2055 14.9355 42.0687 15.1132C43.0335 15.3163 43.8713 15.5448 44.5314 15.7987C45.1915 16.0526 45.7501 16.4588 46.2325 17.0174C46.7149 17.5759 46.9688 18.3122 46.9688 19.2262C46.9688 20.064 46.7149 20.7749 46.2071 21.3843C45.6993 21.9936 45.0392 22.476 44.2268 22.7807C43.3889 23.0853 42.4749 23.2377 41.5101 23.2377C40.1645 23.2377 39.022 22.9838 38.0572 22.476C37.0925 21.9682 36.407 21.2573 35.95 20.2925L38.5396 18.9469C38.9966 20.1148 39.9868 20.6988 41.5101 20.6988C42.1703 20.6988 42.7288 20.5718 43.2112 20.3179C43.6682 20.064 43.9221 19.7086 43.9221 19.2262C43.9221 18.82 43.6936 18.5407 43.262 18.3376C42.8304 18.1345 42.1449 17.9314 41.1801 17.6775C40.1645 17.449 39.3521 17.2205 38.7427 16.9666C38.108 16.7381 37.5748 16.3826 37.1178 15.8749C36.6608 15.3671 36.4323 14.707 36.4323 13.8691C36.4323 13.0567 36.6608 12.3712 37.1178 11.7618C37.5748 11.1525 38.1842 10.6955 38.9712 10.3654C39.7329 10.0608 40.5961 9.88306 41.5355 9.88306C42.6273 9.88306 43.6174 10.1116 44.4806 10.5686C45.3439 11.0256 46.0294 11.6857 46.5118 12.5235L43.9475 13.8183C43.4905 12.879 42.7034 12.3966 41.5355 12.3966C40.9262 12.3966 40.4692 12.5235 40.1137 12.7774C39.7583 13.0313 39.5806 13.3613 39.5806 13.7676C39.5806 14.123 39.7583 14.4023 40.1645 14.58Z" fill="#AAAAAA"/>
<mask id="mask0_4854_5891" style="mask-type:alpha" maskUnits="userSpaceOnUse" x="0" y="0" width="29" height="29">
<circle cx="14.105" cy="14.105" r="14.105" fill="#D9D9D9"/>
</mask>
<g mask="url(#mask0_4854_5891)">
<rect x="-3.75562" y="17.7366" width="14.7311" height="14.7311" rx="1.55026" transform="rotate(-15 -3.75562 17.7366)" fill="#AAAAAA"/>
<rect x="13.9242" y="17.7366" width="14.7311" height="14.7311" rx="1.55026" transform="rotate(-15 13.9242 17.7366)" fill="#AAAAAA"/>
<rect x="13.9242" y="0.0568848" width="14.7311" height="14.7311" rx="1.55026" transform="rotate(-15 13.9242 0.0568848)" fill="#AAAAAA"/>
<rect x="-3.75562" y="0.0568848" width="14.7311" height="14.7311" rx="1.55026" transform="rotate(-15 -3.75562 0.0568848)" fill="#AAAAAA"/>
</g>
</svg>
