<svg width="136" height="33" viewBox="0 0 136 33" fill="none" xmlns="http://www.w3.org/2000/svg">
<path d="M128.029 24.9738C126.617 24.9738 125.378 24.6739 124.314 24.0741C123.25 23.4549 122.428 22.5939 121.847 21.491C121.267 20.3882 120.977 19.0918 120.977 17.602C120.977 16.1315 121.267 14.8448 121.847 13.7419C122.428 12.6197 123.25 11.749 124.314 11.1299C125.378 10.4914 126.617 10.1721 128.029 10.1721C129.461 10.1721 130.699 10.4914 131.744 11.1299C132.808 11.7684 133.631 12.6487 134.211 13.771C134.791 14.8738 135.082 16.1411 135.082 17.5729C135.082 17.7858 135.072 17.9986 135.053 18.2114C135.053 18.4049 135.033 18.5694 134.995 18.7048H124.082V15.8606H132.121L131.541 17.2247C131.541 16.0251 131.251 15.048 130.67 14.2934C130.109 13.5388 129.229 13.1615 128.029 13.1615C126.984 13.1615 126.143 13.4904 125.504 14.1482C124.866 14.7868 124.546 15.6478 124.546 16.7313V18.2695C124.546 19.4111 124.866 20.3108 125.504 20.9686C126.162 21.6071 127.052 21.9264 128.174 21.9264C129.161 21.9264 129.935 21.7232 130.496 21.3169C131.057 20.9106 131.541 20.4075 131.947 19.8077L134.588 21.3169C133.95 22.4971 133.079 23.4065 131.976 24.045C130.893 24.6642 129.577 24.9738 128.029 24.9738Z" fill="#AAAAAA"/>
<path d="M114.941 10.4914L115.899 14.4095V24.6835H112.097V10.4914H114.941ZM115.115 16.354L114.419 16.0347V13.1324L114.68 12.8132C114.893 12.4649 115.212 12.0876 115.637 11.6813C116.082 11.275 116.586 10.9267 117.147 10.6365C117.727 10.3269 118.327 10.1721 118.946 10.1721C119.256 10.1721 119.536 10.1915 119.788 10.2302C120.039 10.2689 120.233 10.3366 120.368 10.4333V13.887H119.439C118.182 13.887 117.214 14.0902 116.537 14.4965C115.86 14.8835 115.386 15.5026 115.115 16.354Z" fill="#AAAAAA"/>
<path d="M100.756 25.0321C99.6923 25.0321 98.8409 24.8677 98.2024 24.5388C97.5639 24.2098 97.0705 23.7745 96.7223 23.2327C96.3933 22.6716 96.1708 22.0331 96.0547 21.3172C95.9387 20.6013 95.8806 19.8564 95.8806 19.0825V10.4917H99.6826V19.1115C99.6826 19.9822 99.8664 20.5626 100.234 20.8529C100.621 21.1431 101.076 21.2882 101.598 21.2882C102.082 21.2882 102.566 21.2011 103.049 21.027C103.533 20.8529 103.988 20.6013 104.413 20.2724C104.858 19.9241 105.226 19.5275 105.516 19.0825L105.981 21.085H105.052V10.4917H108.854V24.6839H106.01L105.226 21.9847L106.445 22.0138C105.961 22.5749 105.41 23.0876 104.791 23.552C104.191 24.0163 103.543 24.384 102.846 24.6548C102.169 24.9064 101.472 25.0321 100.756 25.0321Z" fill="#AAAAAA"/>
<path d="M90.8665 24.9448C89.4154 24.9448 88.2642 24.5675 87.4128 23.8129C86.5808 23.039 86.1648 21.8103 86.1648 20.127V10.6656L86.1068 10.4914L86.8904 7.15381H89.9668V19.5175C89.9668 20.1367 90.1119 20.5914 90.4022 20.8816C90.7118 21.1525 91.0987 21.2879 91.5631 21.2879C91.8727 21.2879 92.1532 21.2686 92.4048 21.2299C92.6563 21.1718 92.8788 21.1138 93.0723 21.0557V24.5965C92.7627 24.7126 92.4338 24.7997 92.0855 24.8577C91.7372 24.9158 91.3309 24.9448 90.8665 24.9448ZM83.9591 14.0032V10.4914H93.0723V14.0032H83.9591Z" fill="#AAAAAA"/>
<path d="M77.4636 10.1721C78.431 10.1721 79.205 10.3366 79.7854 10.6655C80.3853 10.9944 80.8303 11.4394 81.1205 12.0006C81.4301 12.5617 81.6332 13.2002 81.73 13.9161C81.8267 14.6126 81.8751 15.3382 81.8751 16.0928V24.6835H78.0731V16.0638C78.0731 15.1931 77.899 14.6126 77.5507 14.3224C77.2218 14.0322 76.7961 13.887 76.2737 13.887C75.79 13.887 75.2966 13.9838 74.7935 14.1773C74.2905 14.3514 73.8164 14.6126 73.3714 14.9609C72.9457 15.2898 72.5781 15.6671 72.2685 16.0928L71.7751 14.1192H72.7329V24.6835H68.9309V10.4914H71.7751L72.5588 13.2195L71.3398 13.1615C71.8429 12.581 72.4136 12.0683 73.0521 11.6233C73.71 11.1782 74.4065 10.83 75.1418 10.5784C75.877 10.3076 76.651 10.1721 77.4636 10.1721Z" fill="#AAAAAA"/>
<path d="M59.5533 24.9738C58.1408 24.9738 56.9025 24.6739 55.8384 24.0741C54.7742 23.4549 53.9519 22.5939 53.3714 21.491C52.791 20.3882 52.5007 19.0918 52.5007 17.602C52.5007 16.1315 52.791 14.8448 53.3714 13.7419C53.9519 12.6197 54.7742 11.749 55.8384 11.1299C56.9025 10.4914 58.1408 10.1721 59.5533 10.1721C60.9851 10.1721 62.2234 10.4914 63.2682 11.1299C64.3324 11.7684 65.1547 12.6487 65.7351 13.771C66.3156 14.8738 66.6058 16.1411 66.6058 17.5729C66.6058 17.7858 66.5962 17.9986 66.5768 18.2114C66.5768 18.4049 66.5575 18.5694 66.5188 18.7048H55.6062V15.8606H63.6455L63.065 17.2247C63.065 16.0251 62.7748 15.048 62.1944 14.2934C61.6333 13.5388 60.7529 13.1615 59.5533 13.1615C58.5085 13.1615 57.6668 13.4904 57.0283 14.1482C56.3898 14.7868 56.0705 15.6478 56.0705 16.7313V18.2695C56.0705 19.4111 56.3898 20.3108 57.0283 20.9686C57.6861 21.6071 58.5762 21.9264 59.6984 21.9264C60.6852 21.9264 61.4591 21.7232 62.0202 21.3169C62.5813 20.9106 63.065 20.4075 63.4714 19.8077L66.1124 21.3169C65.4739 22.4971 64.6033 23.4065 63.5004 24.045C62.4169 24.6642 61.1012 24.9738 59.5533 24.9738Z" fill="#AAAAAA"/>
<path d="M51.919 10.4917L46.7239 24.6839H43.067L37.6107 10.4917H41.6159L45.3308 21.3462H44.4311L48.0009 10.4917H51.919Z" fill="#AAAAAA"/>
<path fill-rule="evenodd" clip-rule="evenodd" d="M10.2989 1.89502C9.80431 1.89502 9.40335 2.29597 9.40335 2.79058V11.2983H9.40333C4.21001 11.2983 0 15.5083 0 20.7016C0 25.8949 4.21002 30.1049 9.40333 30.1049H17.9111C18.4057 30.1049 18.8066 29.704 18.8066 29.2094V20.7017H18.8067C24 20.7017 28.21 16.4917 28.21 11.2983C28.21 6.10503 24 1.89502 18.8067 1.89502H10.2989ZM18.8066 20.7017V12.1938C18.8066 11.6992 18.4057 11.2983 17.9111 11.2983H9.40335V19.8061C9.40335 20.3007 9.80431 20.7017 10.2989 20.7017H18.8066Z" fill="#AAAAAA"/>
<path d="M10.198 1.89502C9.7591 1.89502 9.40332 2.25079 9.40332 2.68967L9.40332 11.2983H18.012C18.4509 11.2983 18.8066 11.6541 18.8066 12.093L18.8066 20.7017C24 20.7017 28.21 16.4917 28.21 11.2983C28.21 6.10503 24 1.89502 18.8066 1.89502H10.198Z" fill="#AAAAAA"/>
</svg>
